<mxfile host="app.diagrams.net" agent="Mozilla/5.0 (Windows NT 10.0; Win64; x64) AppleWebKit/537.36 (KHTML, like Gecko) Chrome/130.0.0.0 Safari/537.36 OPR/115.0.0.0" version="26.0.5" pages="3">
  <diagram name="Use_Case" id="vNd39kaN7yE_tbXhkVb_">
    <mxGraphModel dx="1465" dy="801" grid="1" gridSize="10" guides="1" tooltips="1" connect="1" arrows="1" fold="1" page="1" pageScale="1" pageWidth="1654" pageHeight="1169" math="0" shadow="0">
      <root>
        <mxCell id="0" />
        <mxCell id="1" parent="0" />
        <mxCell id="K3DokXd-MW-h60EcI67w-5" value="Administrador" style="shape=umlActor;verticalLabelPosition=bottom;verticalAlign=top;html=1;outlineConnect=0;" parent="1" vertex="1">
          <mxGeometry x="625" y="450" width="75" height="150" as="geometry" />
        </mxCell>
        <mxCell id="K3DokXd-MW-h60EcI67w-6" value="Adicionar Venda" style="ellipse;whiteSpace=wrap;html=1;" parent="1" vertex="1">
          <mxGeometry x="981.5" y="579" width="110" height="65" as="geometry" />
        </mxCell>
        <mxCell id="K3DokXd-MW-h60EcI67w-9" value="Inserir&amp;nbsp;&lt;div&gt;Produtos&lt;/div&gt;" style="ellipse;whiteSpace=wrap;html=1;" parent="1" vertex="1">
          <mxGeometry x="975" y="830" width="100" height="60" as="geometry" />
        </mxCell>
        <mxCell id="K3DokXd-MW-h60EcI67w-10" value="Editar Venda" style="ellipse;whiteSpace=wrap;html=1;" parent="1" vertex="1">
          <mxGeometry x="980" y="497" width="110" height="70" as="geometry" />
        </mxCell>
        <mxCell id="K3DokXd-MW-h60EcI67w-12" value="Editar info.&amp;nbsp;&lt;div&gt;produtos&lt;/div&gt;" style="ellipse;whiteSpace=wrap;html=1;" parent="1" vertex="1">
          <mxGeometry x="985" y="660" width="93" height="60" as="geometry" />
        </mxCell>
        <mxCell id="K3DokXd-MW-h60EcI67w-13" value="Eliminar&amp;nbsp;&lt;div&gt;produtos&lt;/div&gt;" style="ellipse;whiteSpace=wrap;html=1;" parent="1" vertex="1">
          <mxGeometry x="971.5" y="924.5" width="90" height="60" as="geometry" />
        </mxCell>
        <mxCell id="A7B3NoZqJrBmNSEb9xJH-1" value="Adicionar Fornecedor" style="ellipse;whiteSpace=wrap;html=1;" parent="1" vertex="1">
          <mxGeometry x="250" y="520" width="100" height="70" as="geometry" />
        </mxCell>
        <mxCell id="A7B3NoZqJrBmNSEb9xJH-2" value="Editar&lt;div&gt;Fornecedor&lt;/div&gt;" style="ellipse;whiteSpace=wrap;html=1;" parent="1" vertex="1">
          <mxGeometry x="320" y="420" width="110" height="70" as="geometry" />
        </mxCell>
        <mxCell id="A7B3NoZqJrBmNSEb9xJH-3" value="Remover&lt;div&gt;Fornecedor&lt;/div&gt;" style="ellipse;whiteSpace=wrap;html=1;" parent="1" vertex="1">
          <mxGeometry x="210" y="450" width="110" height="70" as="geometry" />
        </mxCell>
        <mxCell id="A7B3NoZqJrBmNSEb9xJH-4" value="Visualizar&lt;div&gt;qtd_vendas&lt;/div&gt;" style="ellipse;whiteSpace=wrap;html=1;" parent="1" vertex="1">
          <mxGeometry x="160" y="650" width="100" height="60" as="geometry" />
        </mxCell>
        <mxCell id="A7B3NoZqJrBmNSEb9xJH-6" value="Visualizar&lt;div&gt;artigos_mais_vendidos&lt;/div&gt;" style="ellipse;whiteSpace=wrap;html=1;" parent="1" vertex="1">
          <mxGeometry x="120" y="715" width="150" height="80" as="geometry" />
        </mxCell>
        <mxCell id="A7B3NoZqJrBmNSEb9xJH-7" value="Visualizar&lt;div&gt;balanco_financeiro&lt;/div&gt;" style="ellipse;whiteSpace=wrap;html=1;" parent="1" vertex="1">
          <mxGeometry x="240" y="770" width="120" height="90" as="geometry" />
        </mxCell>
        <mxCell id="A7B3NoZqJrBmNSEb9xJH-8" value="Ver Stock" style="ellipse;whiteSpace=wrap;html=1;" parent="1" vertex="1">
          <mxGeometry x="985" y="750" width="90" height="60" as="geometry" />
        </mxCell>
        <mxCell id="A7B3NoZqJrBmNSEb9xJH-9" value="Visualizar&lt;div&gt;Registos_Venda&lt;/div&gt;" style="ellipse;whiteSpace=wrap;html=1;" parent="1" vertex="1">
          <mxGeometry x="370" y="780" width="110" height="70" as="geometry" />
        </mxCell>
        <mxCell id="A7B3NoZqJrBmNSEb9xJH-11" value="Visualizar_A&lt;span style=&quot;background-color: transparent; color: light-dark(rgb(0, 0, 0), rgb(255, 255, 255));&quot;&gt;lertas&lt;/span&gt;&lt;div&gt;&lt;span style=&quot;background-color: transparent; color: light-dark(rgb(0, 0, 0), rgb(255, 255, 255));&quot;&gt;Reposição&lt;/span&gt;&lt;/div&gt;" style="ellipse;whiteSpace=wrap;html=1;" parent="1" vertex="1">
          <mxGeometry x="965" y="387.5" width="130" height="97.5" as="geometry" />
        </mxCell>
        <mxCell id="A7B3NoZqJrBmNSEb9xJH-14" value="" style="endArrow=none;html=1;rounded=0;entryX=0;entryY=0.5;entryDx=0;entryDy=0;" parent="1" source="K3DokXd-MW-h60EcI67w-5" target="K3DokXd-MW-h60EcI67w-10" edge="1">
          <mxGeometry width="50" height="50" relative="1" as="geometry">
            <mxPoint x="830" y="850" as="sourcePoint" />
            <mxPoint x="880" y="800" as="targetPoint" />
          </mxGeometry>
        </mxCell>
        <mxCell id="A7B3NoZqJrBmNSEb9xJH-15" value="" style="endArrow=none;html=1;rounded=0;entryX=0;entryY=0;entryDx=0;entryDy=0;" parent="1" source="K3DokXd-MW-h60EcI67w-5" target="K3DokXd-MW-h60EcI67w-6" edge="1">
          <mxGeometry width="50" height="50" relative="1" as="geometry">
            <mxPoint x="830" y="850" as="sourcePoint" />
            <mxPoint x="880" y="800" as="targetPoint" />
          </mxGeometry>
        </mxCell>
        <mxCell id="A7B3NoZqJrBmNSEb9xJH-16" value="" style="endArrow=none;html=1;rounded=0;entryX=0;entryY=0;entryDx=0;entryDy=0;" parent="1" source="K3DokXd-MW-h60EcI67w-5" target="K3DokXd-MW-h60EcI67w-12" edge="1">
          <mxGeometry width="50" height="50" relative="1" as="geometry">
            <mxPoint x="691" y="554" as="sourcePoint" />
            <mxPoint x="750" y="770" as="targetPoint" />
          </mxGeometry>
        </mxCell>
        <mxCell id="A7B3NoZqJrBmNSEb9xJH-17" value="" style="endArrow=none;html=1;rounded=0;entryX=0;entryY=0;entryDx=0;entryDy=0;" parent="1" source="K3DokXd-MW-h60EcI67w-5" target="A7B3NoZqJrBmNSEb9xJH-8" edge="1">
          <mxGeometry width="50" height="50" relative="1" as="geometry">
            <mxPoint x="610" y="730" as="sourcePoint" />
            <mxPoint x="660" y="680" as="targetPoint" />
          </mxGeometry>
        </mxCell>
        <mxCell id="A7B3NoZqJrBmNSEb9xJH-18" value="" style="endArrow=none;html=1;rounded=0;exitX=0;exitY=0;exitDx=0;exitDy=0;" parent="1" source="K3DokXd-MW-h60EcI67w-9" target="K3DokXd-MW-h60EcI67w-5" edge="1">
          <mxGeometry width="50" height="50" relative="1" as="geometry">
            <mxPoint x="610" y="730" as="sourcePoint" />
            <mxPoint x="660" y="680" as="targetPoint" />
          </mxGeometry>
        </mxCell>
        <mxCell id="A7B3NoZqJrBmNSEb9xJH-19" value="" style="endArrow=none;html=1;rounded=0;entryX=0;entryY=0;entryDx=0;entryDy=0;" parent="1" source="K3DokXd-MW-h60EcI67w-5" target="K3DokXd-MW-h60EcI67w-13" edge="1">
          <mxGeometry width="50" height="50" relative="1" as="geometry">
            <mxPoint x="630" y="730" as="sourcePoint" />
            <mxPoint x="680" y="680" as="targetPoint" />
          </mxGeometry>
        </mxCell>
        <mxCell id="A7B3NoZqJrBmNSEb9xJH-20" value="" style="endArrow=none;html=1;rounded=0;entryX=1;entryY=0.5;entryDx=0;entryDy=0;" parent="1" source="K3DokXd-MW-h60EcI67w-5" target="A7B3NoZqJrBmNSEb9xJH-2" edge="1">
          <mxGeometry width="50" height="50" relative="1" as="geometry">
            <mxPoint x="630" y="730" as="sourcePoint" />
            <mxPoint x="680" y="680" as="targetPoint" />
          </mxGeometry>
        </mxCell>
        <mxCell id="A7B3NoZqJrBmNSEb9xJH-21" value="" style="endArrow=none;html=1;rounded=0;entryX=1;entryY=1;entryDx=0;entryDy=0;" parent="1" source="K3DokXd-MW-h60EcI67w-5" target="A7B3NoZqJrBmNSEb9xJH-3" edge="1">
          <mxGeometry width="50" height="50" relative="1" as="geometry">
            <mxPoint x="630" y="730" as="sourcePoint" />
            <mxPoint x="680" y="680" as="targetPoint" />
          </mxGeometry>
        </mxCell>
        <mxCell id="A7B3NoZqJrBmNSEb9xJH-22" value="" style="endArrow=none;html=1;rounded=0;entryX=1;entryY=0.5;entryDx=0;entryDy=0;" parent="1" source="K3DokXd-MW-h60EcI67w-5" target="A7B3NoZqJrBmNSEb9xJH-1" edge="1">
          <mxGeometry width="50" height="50" relative="1" as="geometry">
            <mxPoint x="630" y="730" as="sourcePoint" />
            <mxPoint x="680" y="680" as="targetPoint" />
          </mxGeometry>
        </mxCell>
        <mxCell id="A7B3NoZqJrBmNSEb9xJH-23" value="" style="endArrow=none;html=1;rounded=0;entryX=1;entryY=0.5;entryDx=0;entryDy=0;" parent="1" source="K3DokXd-MW-h60EcI67w-5" target="A7B3NoZqJrBmNSEb9xJH-4" edge="1">
          <mxGeometry width="50" height="50" relative="1" as="geometry">
            <mxPoint x="630" y="810" as="sourcePoint" />
            <mxPoint x="680" y="760" as="targetPoint" />
          </mxGeometry>
        </mxCell>
        <mxCell id="A7B3NoZqJrBmNSEb9xJH-24" value="" style="endArrow=none;html=1;rounded=0;entryX=1;entryY=0;entryDx=0;entryDy=0;" parent="1" source="K3DokXd-MW-h60EcI67w-5" target="A7B3NoZqJrBmNSEb9xJH-6" edge="1">
          <mxGeometry width="50" height="50" relative="1" as="geometry">
            <mxPoint x="630" y="810" as="sourcePoint" />
            <mxPoint x="680" y="760" as="targetPoint" />
          </mxGeometry>
        </mxCell>
        <mxCell id="A7B3NoZqJrBmNSEb9xJH-25" value="" style="endArrow=none;html=1;rounded=0;entryX=1;entryY=0;entryDx=0;entryDy=0;" parent="1" source="K3DokXd-MW-h60EcI67w-5" target="A7B3NoZqJrBmNSEb9xJH-7" edge="1">
          <mxGeometry width="50" height="50" relative="1" as="geometry">
            <mxPoint x="630" y="810" as="sourcePoint" />
            <mxPoint x="680" y="760" as="targetPoint" />
          </mxGeometry>
        </mxCell>
        <mxCell id="A7B3NoZqJrBmNSEb9xJH-26" value="" style="endArrow=none;html=1;rounded=0;entryX=0.5;entryY=0;entryDx=0;entryDy=0;" parent="1" source="K3DokXd-MW-h60EcI67w-5" target="A7B3NoZqJrBmNSEb9xJH-9" edge="1">
          <mxGeometry width="50" height="50" relative="1" as="geometry">
            <mxPoint x="630" y="810" as="sourcePoint" />
            <mxPoint x="680" y="760" as="targetPoint" />
          </mxGeometry>
        </mxCell>
        <mxCell id="A7B3NoZqJrBmNSEb9xJH-27" value="" style="endArrow=none;html=1;rounded=0;entryX=0;entryY=0.5;entryDx=0;entryDy=0;" parent="1" source="K3DokXd-MW-h60EcI67w-5" target="A7B3NoZqJrBmNSEb9xJH-11" edge="1">
          <mxGeometry width="50" height="50" relative="1" as="geometry">
            <mxPoint x="630" y="810" as="sourcePoint" />
            <mxPoint x="680" y="760" as="targetPoint" />
          </mxGeometry>
        </mxCell>
        <mxCell id="VD00Um4Xrs0RQCmZcA1Z-1" value="Funcionário" style="shape=umlActor;verticalLabelPosition=bottom;verticalAlign=top;html=1;outlineConnect=0;" parent="1" vertex="1">
          <mxGeometry x="1450" y="680" width="75" height="150" as="geometry" />
        </mxCell>
        <mxCell id="VD00Um4Xrs0RQCmZcA1Z-3" value="" style="endArrow=none;html=1;rounded=0;entryX=1;entryY=0.5;entryDx=0;entryDy=0;" parent="1" source="VD00Um4Xrs0RQCmZcA1Z-1" target="K3DokXd-MW-h60EcI67w-10" edge="1">
          <mxGeometry width="50" height="50" relative="1" as="geometry">
            <mxPoint x="1090" y="760" as="sourcePoint" />
            <mxPoint x="1140" y="710" as="targetPoint" />
          </mxGeometry>
        </mxCell>
        <mxCell id="VD00Um4Xrs0RQCmZcA1Z-4" value="" style="endArrow=none;html=1;rounded=0;entryX=1;entryY=0.5;entryDx=0;entryDy=0;" parent="1" source="VD00Um4Xrs0RQCmZcA1Z-1" target="K3DokXd-MW-h60EcI67w-6" edge="1">
          <mxGeometry width="50" height="50" relative="1" as="geometry">
            <mxPoint x="1090" y="760" as="sourcePoint" />
            <mxPoint x="1140" y="710" as="targetPoint" />
          </mxGeometry>
        </mxCell>
        <mxCell id="VD00Um4Xrs0RQCmZcA1Z-5" value="" style="endArrow=none;html=1;rounded=0;entryX=1;entryY=0.5;entryDx=0;entryDy=0;" parent="1" source="VD00Um4Xrs0RQCmZcA1Z-1" target="K3DokXd-MW-h60EcI67w-12" edge="1">
          <mxGeometry width="50" height="50" relative="1" as="geometry">
            <mxPoint x="1090" y="760" as="sourcePoint" />
            <mxPoint x="1140" y="710" as="targetPoint" />
          </mxGeometry>
        </mxCell>
        <mxCell id="VD00Um4Xrs0RQCmZcA1Z-6" value="" style="endArrow=none;html=1;rounded=0;exitX=1;exitY=0.5;exitDx=0;exitDy=0;" parent="1" source="A7B3NoZqJrBmNSEb9xJH-8" target="VD00Um4Xrs0RQCmZcA1Z-1" edge="1">
          <mxGeometry width="50" height="50" relative="1" as="geometry">
            <mxPoint x="1090" y="760" as="sourcePoint" />
            <mxPoint x="1140" y="710" as="targetPoint" />
          </mxGeometry>
        </mxCell>
        <mxCell id="VD00Um4Xrs0RQCmZcA1Z-7" value="" style="endArrow=none;html=1;rounded=0;exitX=1;exitY=0.5;exitDx=0;exitDy=0;" parent="1" source="K3DokXd-MW-h60EcI67w-9" target="VD00Um4Xrs0RQCmZcA1Z-1" edge="1">
          <mxGeometry width="50" height="50" relative="1" as="geometry">
            <mxPoint x="1090" y="760" as="sourcePoint" />
            <mxPoint x="1140" y="710" as="targetPoint" />
          </mxGeometry>
        </mxCell>
        <mxCell id="VD00Um4Xrs0RQCmZcA1Z-11" value="" style="endArrow=none;html=1;rounded=0;exitX=1;exitY=0.5;exitDx=0;exitDy=0;" parent="1" source="K3DokXd-MW-h60EcI67w-13" target="VD00Um4Xrs0RQCmZcA1Z-1" edge="1">
          <mxGeometry width="50" height="50" relative="1" as="geometry">
            <mxPoint x="1090" y="760" as="sourcePoint" />
            <mxPoint x="1140" y="710" as="targetPoint" />
          </mxGeometry>
        </mxCell>
        <mxCell id="VD00Um4Xrs0RQCmZcA1Z-12" value="" style="endArrow=none;html=1;rounded=0;entryX=1;entryY=0.5;entryDx=0;entryDy=0;" parent="1" source="VD00Um4Xrs0RQCmZcA1Z-1" target="A7B3NoZqJrBmNSEb9xJH-11" edge="1">
          <mxGeometry width="50" height="50" relative="1" as="geometry">
            <mxPoint x="860" y="610" as="sourcePoint" />
            <mxPoint x="910" y="560" as="targetPoint" />
          </mxGeometry>
        </mxCell>
        <mxCell id="VD00Um4Xrs0RQCmZcA1Z-14" value="Registar&lt;div&gt;Funcionario&lt;/div&gt;" style="ellipse;whiteSpace=wrap;html=1;" parent="1" vertex="1">
          <mxGeometry x="390" y="350" width="110" height="70" as="geometry" />
        </mxCell>
        <mxCell id="VD00Um4Xrs0RQCmZcA1Z-15" value="" style="endArrow=none;html=1;rounded=0;entryX=1;entryY=1;entryDx=0;entryDy=0;" parent="1" source="K3DokXd-MW-h60EcI67w-5" target="VD00Um4Xrs0RQCmZcA1Z-14" edge="1">
          <mxGeometry width="50" height="50" relative="1" as="geometry">
            <mxPoint x="800" y="557.5" as="sourcePoint" />
            <mxPoint x="850" y="507.5" as="targetPoint" />
          </mxGeometry>
        </mxCell>
        <mxCell id="VD00Um4Xrs0RQCmZcA1Z-16" value="Editar&lt;div&gt;info. funcionario&lt;/div&gt;" style="ellipse;whiteSpace=wrap;html=1;" parent="1" vertex="1">
          <mxGeometry x="460" y="280" width="110" height="70" as="geometry" />
        </mxCell>
        <mxCell id="VD00Um4Xrs0RQCmZcA1Z-17" value="Eliminar&lt;div&gt;Funcionario&lt;/div&gt;" style="ellipse;whiteSpace=wrap;html=1;" parent="1" vertex="1">
          <mxGeometry x="570" y="317.5" width="110" height="70" as="geometry" />
        </mxCell>
        <mxCell id="VD00Um4Xrs0RQCmZcA1Z-18" value="" style="endArrow=none;html=1;rounded=0;entryX=0.5;entryY=1;entryDx=0;entryDy=0;" parent="1" source="K3DokXd-MW-h60EcI67w-5" target="VD00Um4Xrs0RQCmZcA1Z-16" edge="1">
          <mxGeometry width="50" height="50" relative="1" as="geometry">
            <mxPoint x="800" y="557.5" as="sourcePoint" />
            <mxPoint x="850" y="507.5" as="targetPoint" />
          </mxGeometry>
        </mxCell>
        <mxCell id="VD00Um4Xrs0RQCmZcA1Z-19" value="" style="endArrow=none;html=1;rounded=0;entryX=0.5;entryY=1;entryDx=0;entryDy=0;" parent="1" source="K3DokXd-MW-h60EcI67w-5" target="VD00Um4Xrs0RQCmZcA1Z-17" edge="1">
          <mxGeometry width="50" height="50" relative="1" as="geometry">
            <mxPoint x="800" y="557.5" as="sourcePoint" />
            <mxPoint x="850" y="507.5" as="targetPoint" />
          </mxGeometry>
        </mxCell>
      </root>
    </mxGraphModel>
  </diagram>
  <diagram id="DDll6Ds7mXkh7gcO_zW3" name="Classes">
    <mxGraphModel dx="1638" dy="895" grid="1" gridSize="10" guides="1" tooltips="1" connect="1" arrows="1" fold="1" page="1" pageScale="1" pageWidth="1654" pageHeight="1169" math="0" shadow="0">
      <root>
        <mxCell id="0" />
        <mxCell id="1" parent="0" />
        <mxCell id="fPFQEl6dKQh0-QmJB68h-5" value="Administrador" style="swimlane;childLayout=stackLayout;horizontal=1;startSize=50;horizontalStack=0;rounded=1;fontSize=14;fontStyle=0;strokeWidth=2;resizeParent=0;resizeLast=1;shadow=0;dashed=0;align=center;arcSize=4;whiteSpace=wrap;html=1;" parent="1" vertex="1">
          <mxGeometry x="230" y="380" width="210" height="160" as="geometry" />
        </mxCell>
        <mxCell id="fPFQEl6dKQh0-QmJB68h-6" value="id_administrador&lt;div&gt;&lt;div&gt;nome_administrador&lt;/div&gt;&lt;div&gt;num_telemovel_administrador&lt;/div&gt;&lt;div&gt;endereco_administrador&lt;/div&gt;&lt;div&gt;email_administrador&lt;/div&gt;&lt;/div&gt;" style="align=left;strokeColor=none;fillColor=none;spacingLeft=4;fontSize=12;verticalAlign=top;resizable=0;rotatable=0;part=1;html=1;" parent="fPFQEl6dKQh0-QmJB68h-5" vertex="1">
          <mxGeometry y="50" width="210" height="110" as="geometry" />
        </mxCell>
        <mxCell id="fPFQEl6dKQh0-QmJB68h-7" value="Funcionario" style="swimlane;childLayout=stackLayout;horizontal=1;startSize=50;horizontalStack=0;rounded=1;fontSize=14;fontStyle=0;strokeWidth=2;resizeParent=0;resizeLast=1;shadow=0;dashed=0;align=center;arcSize=4;whiteSpace=wrap;html=1;" parent="1" vertex="1">
          <mxGeometry x="897" y="360" width="210" height="160" as="geometry" />
        </mxCell>
        <mxCell id="fPFQEl6dKQh0-QmJB68h-8" value="id_funcionario&lt;div&gt;&lt;div&gt;nome_funcionario&lt;/div&gt;&lt;div&gt;num_telemovel_funcionario&lt;/div&gt;&lt;div&gt;endereco_funcionario&lt;/div&gt;&lt;div&gt;email_funcionario&lt;/div&gt;&lt;/div&gt;" style="align=left;strokeColor=none;fillColor=none;spacingLeft=4;fontSize=12;verticalAlign=top;resizable=0;rotatable=0;part=1;html=1;" parent="fPFQEl6dKQh0-QmJB68h-7" vertex="1">
          <mxGeometry y="50" width="210" height="110" as="geometry" />
        </mxCell>
        <mxCell id="fPFQEl6dKQh0-QmJB68h-9" value="Artigo" style="swimlane;childLayout=stackLayout;horizontal=1;startSize=50;horizontalStack=0;rounded=1;fontSize=14;fontStyle=0;strokeWidth=2;resizeParent=0;resizeLast=1;shadow=0;dashed=0;align=center;arcSize=4;whiteSpace=wrap;html=1;" parent="1" vertex="1">
          <mxGeometry x="270" y="730" width="160" height="140" as="geometry" />
        </mxCell>
        <mxCell id="fPFQEl6dKQh0-QmJB68h-10" value="id_artigo&lt;div&gt;nome_artigo&lt;/div&gt;&lt;div&gt;quantidade_artigo&lt;/div&gt;&lt;div&gt;preco_artigo&lt;/div&gt;&lt;div&gt;origem&lt;/div&gt;" style="align=left;strokeColor=none;fillColor=none;spacingLeft=4;fontSize=12;verticalAlign=top;resizable=0;rotatable=0;part=1;html=1;" parent="fPFQEl6dKQh0-QmJB68h-9" vertex="1">
          <mxGeometry y="50" width="160" height="90" as="geometry" />
        </mxCell>
        <mxCell id="fPFQEl6dKQh0-QmJB68h-12" value="Venda_Cliente" style="swimlane;childLayout=stackLayout;horizontal=1;startSize=50;horizontalStack=0;rounded=1;fontSize=14;fontStyle=0;strokeWidth=2;resizeParent=0;resizeLast=1;shadow=0;dashed=0;align=center;arcSize=4;whiteSpace=wrap;html=1;" parent="1" vertex="1">
          <mxGeometry x="910" y="660" width="160" height="210" as="geometry" />
        </mxCell>
        <mxCell id="fPFQEl6dKQh0-QmJB68h-13" value="&lt;div&gt;id_Venda_Cliente&lt;/div&gt;id_artigo&lt;div&gt;nome_artigo&lt;/div&gt;&lt;div&gt;nome_funcionario&lt;/div&gt;&lt;div&gt;quantidade_venda_cliente&lt;/div&gt;&lt;div&gt;preco_venda_cliente&lt;/div&gt;&lt;div&gt;preco_total_venda_cliente&lt;/div&gt;&lt;div&gt;data_venda_cliente&lt;/div&gt;&lt;div&gt;hora_venda_cliente&lt;/div&gt;&lt;div&gt;metodo_pagamento&lt;/div&gt;" style="align=left;strokeColor=none;fillColor=none;spacingLeft=4;fontSize=12;verticalAlign=top;resizable=0;rotatable=0;part=1;html=1;" parent="fPFQEl6dKQh0-QmJB68h-12" vertex="1">
          <mxGeometry y="50" width="160" height="160" as="geometry" />
        </mxCell>
        <mxCell id="fPFQEl6dKQh0-QmJB68h-14" value="Compra_Fornecedor" style="swimlane;childLayout=stackLayout;horizontal=1;startSize=50;horizontalStack=0;rounded=1;fontSize=14;fontStyle=0;strokeWidth=2;resizeParent=0;resizeLast=1;shadow=0;dashed=0;align=center;arcSize=4;whiteSpace=wrap;html=1;" parent="1" vertex="1">
          <mxGeometry x="560" y="550" width="200" height="240" as="geometry" />
        </mxCell>
        <mxCell id="fPFQEl6dKQh0-QmJB68h-15" value="&lt;div&gt;id_compra_fornecedor&lt;/div&gt;id_artigo&lt;div&gt;id_administrador&lt;/div&gt;&lt;div&gt;id_fornecedor&lt;/div&gt;&lt;div&gt;&lt;div&gt;nome_artigo&lt;/div&gt;&lt;div&gt;nome_administrador&lt;/div&gt;&lt;div&gt;nome&lt;span style=&quot;background-color: transparent; color: light-dark(rgb(0, 0, 0), rgb(255, 255, 255));&quot;&gt;_fornecedor&lt;/span&gt;&lt;/div&gt;&lt;div&gt;quantidade_compra_fornecedor&lt;/div&gt;&lt;div&gt;preco&lt;span style=&quot;background-color: transparent; color: light-dark(rgb(0, 0, 0), rgb(255, 255, 255));&quot;&gt;_compra_fornecedor&lt;/span&gt;&lt;/div&gt;&lt;div&gt;preco_total&lt;span style=&quot;background-color: transparent; color: light-dark(rgb(0, 0, 0), rgb(255, 255, 255));&quot;&gt;_compra_fornecedor&lt;/span&gt;&lt;/div&gt;&lt;div&gt;data&lt;span style=&quot;background-color: transparent; color: light-dark(rgb(0, 0, 0), rgb(255, 255, 255));&quot;&gt;_compra_fornecedor&lt;/span&gt;&lt;/div&gt;&lt;div&gt;hora&lt;span style=&quot;background-color: transparent; color: light-dark(rgb(0, 0, 0), rgb(255, 255, 255));&quot;&gt;_compra_fornecedor&lt;/span&gt;&lt;/div&gt;&lt;/div&gt;" style="align=left;strokeColor=none;fillColor=none;spacingLeft=4;fontSize=12;verticalAlign=top;resizable=0;rotatable=0;part=1;html=1;" parent="fPFQEl6dKQh0-QmJB68h-14" vertex="1">
          <mxGeometry y="50" width="200" height="190" as="geometry" />
        </mxCell>
        <mxCell id="fPFQEl6dKQh0-QmJB68h-16" value="Fornecedor" style="swimlane;childLayout=stackLayout;horizontal=1;startSize=50;horizontalStack=0;rounded=1;fontSize=14;fontStyle=0;strokeWidth=2;resizeParent=0;resizeLast=1;shadow=0;dashed=0;align=center;arcSize=4;whiteSpace=wrap;html=1;" parent="1" vertex="1">
          <mxGeometry x="560" y="220" width="210" height="160" as="geometry" />
        </mxCell>
        <mxCell id="fPFQEl6dKQh0-QmJB68h-17" value="id_fornecedor&lt;div&gt;&lt;div&gt;nome_fornecedor&lt;/div&gt;&lt;div&gt;num_telemovel_fornecedor&lt;/div&gt;&lt;div&gt;endereco_fornecedor&lt;/div&gt;&lt;div&gt;email_fornecedor&lt;/div&gt;&lt;/div&gt;" style="align=left;strokeColor=none;fillColor=none;spacingLeft=4;fontSize=12;verticalAlign=top;resizable=0;rotatable=0;part=1;html=1;" parent="fPFQEl6dKQh0-QmJB68h-16" vertex="1">
          <mxGeometry y="50" width="210" height="110" as="geometry" />
        </mxCell>
        <mxCell id="fPFQEl6dKQh0-QmJB68h-25" value="" style="endArrow=none;html=1;rounded=0;entryX=0.5;entryY=0;entryDx=0;entryDy=0;exitX=0.5;exitY=1;exitDx=0;exitDy=0;" parent="1" source="fPFQEl6dKQh0-QmJB68h-17" target="fPFQEl6dKQh0-QmJB68h-14" edge="1">
          <mxGeometry width="50" height="50" relative="1" as="geometry">
            <mxPoint x="700" y="610" as="sourcePoint" />
            <mxPoint x="750" y="560" as="targetPoint" />
          </mxGeometry>
        </mxCell>
        <mxCell id="fPFQEl6dKQh0-QmJB68h-26" value="N" style="edgeLabel;html=1;align=center;verticalAlign=middle;resizable=0;points=[];" parent="fPFQEl6dKQh0-QmJB68h-25" vertex="1" connectable="0">
          <mxGeometry x="0.9089" relative="1" as="geometry">
            <mxPoint x="6" y="-2" as="offset" />
          </mxGeometry>
        </mxCell>
        <mxCell id="fPFQEl6dKQh0-QmJB68h-27" value="1" style="edgeLabel;html=1;align=center;verticalAlign=middle;resizable=0;points=[];" parent="fPFQEl6dKQh0-QmJB68h-25" vertex="1" connectable="0">
          <mxGeometry x="-0.8918" relative="1" as="geometry">
            <mxPoint x="6" as="offset" />
          </mxGeometry>
        </mxCell>
        <mxCell id="fPFQEl6dKQh0-QmJB68h-28" value="" style="endArrow=none;html=1;rounded=0;entryX=0.5;entryY=1;entryDx=0;entryDy=0;exitX=0.5;exitY=0;exitDx=0;exitDy=0;" parent="1" source="fPFQEl6dKQh0-QmJB68h-12" target="fPFQEl6dKQh0-QmJB68h-8" edge="1">
          <mxGeometry width="50" height="50" relative="1" as="geometry">
            <mxPoint x="800" y="610" as="sourcePoint" />
            <mxPoint x="850" y="560" as="targetPoint" />
          </mxGeometry>
        </mxCell>
        <mxCell id="fPFQEl6dKQh0-QmJB68h-29" value="N" style="edgeLabel;html=1;align=center;verticalAlign=middle;resizable=0;points=[];" parent="fPFQEl6dKQh0-QmJB68h-28" vertex="1" connectable="0">
          <mxGeometry x="-0.9057" relative="1" as="geometry">
            <mxPoint x="6" y="-2" as="offset" />
          </mxGeometry>
        </mxCell>
        <mxCell id="fPFQEl6dKQh0-QmJB68h-30" value="1" style="edgeLabel;html=1;align=center;verticalAlign=middle;resizable=0;points=[];" parent="fPFQEl6dKQh0-QmJB68h-28" vertex="1" connectable="0">
          <mxGeometry x="0.7842" relative="1" as="geometry">
            <mxPoint x="7" y="-6" as="offset" />
          </mxGeometry>
        </mxCell>
        <mxCell id="fPFQEl6dKQh0-QmJB68h-31" value="" style="endArrow=none;html=1;rounded=0;exitX=1;exitY=0.5;exitDx=0;exitDy=0;entryX=0;entryY=0.75;entryDx=0;entryDy=0;" parent="1" source="fPFQEl6dKQh0-QmJB68h-10" target="fPFQEl6dKQh0-QmJB68h-13" edge="1">
          <mxGeometry width="50" height="50" relative="1" as="geometry">
            <mxPoint x="630" y="760" as="sourcePoint" />
            <mxPoint x="680" y="710" as="targetPoint" />
          </mxGeometry>
        </mxCell>
        <mxCell id="fPFQEl6dKQh0-QmJB68h-33" value="1" style="edgeLabel;html=1;align=center;verticalAlign=middle;resizable=0;points=[];" parent="fPFQEl6dKQh0-QmJB68h-31" vertex="1" connectable="0">
          <mxGeometry x="-0.9577" y="1" relative="1" as="geometry">
            <mxPoint x="-2" y="-8" as="offset" />
          </mxGeometry>
        </mxCell>
        <mxCell id="fPFQEl6dKQh0-QmJB68h-34" value="N" style="edgeLabel;html=1;align=center;verticalAlign=middle;resizable=0;points=[];" parent="fPFQEl6dKQh0-QmJB68h-31" vertex="1" connectable="0">
          <mxGeometry x="0.9549" relative="1" as="geometry">
            <mxPoint x="4" y="-9" as="offset" />
          </mxGeometry>
        </mxCell>
        <mxCell id="fPFQEl6dKQh0-QmJB68h-32" value="" style="endArrow=none;html=1;rounded=0;exitX=1;exitY=0;exitDx=0;exitDy=0;entryX=0;entryY=0.5;entryDx=0;entryDy=0;" parent="1" source="fPFQEl6dKQh0-QmJB68h-9" target="fPFQEl6dKQh0-QmJB68h-15" edge="1">
          <mxGeometry width="50" height="50" relative="1" as="geometry">
            <mxPoint x="630" y="760" as="sourcePoint" />
            <mxPoint x="680" y="710" as="targetPoint" />
          </mxGeometry>
        </mxCell>
        <mxCell id="fPFQEl6dKQh0-QmJB68h-35" value="1" style="edgeLabel;html=1;align=center;verticalAlign=middle;resizable=0;points=[];" parent="fPFQEl6dKQh0-QmJB68h-32" vertex="1" connectable="0">
          <mxGeometry x="-0.9321" relative="1" as="geometry">
            <mxPoint x="-4" y="-9" as="offset" />
          </mxGeometry>
        </mxCell>
        <mxCell id="fPFQEl6dKQh0-QmJB68h-36" value="N" style="edgeLabel;html=1;align=center;verticalAlign=middle;resizable=0;points=[];" parent="fPFQEl6dKQh0-QmJB68h-32" vertex="1" connectable="0">
          <mxGeometry x="0.8944" relative="1" as="geometry">
            <mxPoint x="-2" y="-10" as="offset" />
          </mxGeometry>
        </mxCell>
        <mxCell id="dpAps-0UkuetUaYIXBSJ-1" value="" style="endArrow=none;html=1;rounded=0;entryX=1;entryY=0.75;entryDx=0;entryDy=0;exitX=0;exitY=0.25;exitDx=0;exitDy=0;" parent="1" source="fPFQEl6dKQh0-QmJB68h-14" target="fPFQEl6dKQh0-QmJB68h-6" edge="1">
          <mxGeometry width="50" height="50" relative="1" as="geometry">
            <mxPoint x="790" y="540" as="sourcePoint" />
            <mxPoint x="840" y="490" as="targetPoint" />
          </mxGeometry>
        </mxCell>
        <mxCell id="secDAL0oWnubVmb7ihV5-1" value="N" style="edgeLabel;html=1;align=center;verticalAlign=middle;resizable=0;points=[];" parent="dpAps-0UkuetUaYIXBSJ-1" vertex="1" connectable="0">
          <mxGeometry x="-0.8248" y="2" relative="1" as="geometry">
            <mxPoint x="3" y="12" as="offset" />
          </mxGeometry>
        </mxCell>
        <mxCell id="secDAL0oWnubVmb7ihV5-2" value="1" style="edgeLabel;html=1;align=center;verticalAlign=middle;resizable=0;points=[];" parent="dpAps-0UkuetUaYIXBSJ-1" vertex="1" connectable="0">
          <mxGeometry x="0.8042" y="-2" relative="1" as="geometry">
            <mxPoint x="-7" y="-16" as="offset" />
          </mxGeometry>
        </mxCell>
        <mxCell id="AddZG8Oc5AMHnZ7CEKfY-1" value="Cliente" style="swimlane;childLayout=stackLayout;horizontal=1;startSize=50;horizontalStack=0;rounded=1;fontSize=14;fontStyle=0;strokeWidth=2;resizeParent=0;resizeLast=1;shadow=0;dashed=0;align=center;arcSize=4;whiteSpace=wrap;html=1;" vertex="1" parent="1">
          <mxGeometry x="1200" y="685" width="210" height="160" as="geometry" />
        </mxCell>
        <mxCell id="AddZG8Oc5AMHnZ7CEKfY-2" value="id_cliente&lt;div&gt;&lt;div&gt;nome_cliente&lt;/div&gt;&lt;div&gt;num_telemovel_cliente&lt;/div&gt;&lt;div&gt;endereco_cliente&lt;/div&gt;&lt;div&gt;email_cliente&lt;/div&gt;&lt;/div&gt;" style="align=left;strokeColor=none;fillColor=none;spacingLeft=4;fontSize=12;verticalAlign=top;resizable=0;rotatable=0;part=1;html=1;" vertex="1" parent="AddZG8Oc5AMHnZ7CEKfY-1">
          <mxGeometry y="50" width="210" height="110" as="geometry" />
        </mxCell>
        <mxCell id="AddZG8Oc5AMHnZ7CEKfY-4" value="" style="endArrow=none;html=1;rounded=0;entryX=0;entryY=0.25;entryDx=0;entryDy=0;exitX=1;exitY=0.25;exitDx=0;exitDy=0;" edge="1" parent="1" source="fPFQEl6dKQh0-QmJB68h-13" target="AddZG8Oc5AMHnZ7CEKfY-1">
          <mxGeometry width="50" height="50" relative="1" as="geometry">
            <mxPoint x="1050" y="780" as="sourcePoint" />
            <mxPoint x="1100" y="730" as="targetPoint" />
          </mxGeometry>
        </mxCell>
        <mxCell id="AddZG8Oc5AMHnZ7CEKfY-5" value="1" style="edgeLabel;html=1;align=center;verticalAlign=middle;resizable=0;points=[];" vertex="1" connectable="0" parent="AddZG8Oc5AMHnZ7CEKfY-4">
          <mxGeometry x="0.9012" relative="1" as="geometry">
            <mxPoint y="-10" as="offset" />
          </mxGeometry>
        </mxCell>
        <mxCell id="AddZG8Oc5AMHnZ7CEKfY-6" value="N" style="edgeLabel;html=1;align=center;verticalAlign=middle;resizable=0;points=[];" vertex="1" connectable="0" parent="AddZG8Oc5AMHnZ7CEKfY-4">
          <mxGeometry x="-0.8649" relative="1" as="geometry">
            <mxPoint x="-2" y="11" as="offset" />
          </mxGeometry>
        </mxCell>
      </root>
    </mxGraphModel>
  </diagram>
  <diagram id="Ywb1FfpC3sCP6GQNxXv9" name="sequencia">
    <mxGraphModel dx="1392" dy="761" grid="1" gridSize="10" guides="1" tooltips="1" connect="1" arrows="1" fold="1" page="1" pageScale="1" pageWidth="1654" pageHeight="1169" math="0" shadow="0">
      <root>
        <mxCell id="0" />
        <mxCell id="1" parent="0" />
        <mxCell id="LfAsfD-tJfEQYERGri0Q-1" value="Administrador" style="shape=umlActor;verticalLabelPosition=bottom;verticalAlign=top;html=1;" parent="1" vertex="1">
          <mxGeometry x="580" y="40" width="50" height="100" as="geometry" />
        </mxCell>
        <mxCell id="LfAsfD-tJfEQYERGri0Q-2" value="Sistema" style="html=1;whiteSpace=wrap;" parent="1" vertex="1">
          <mxGeometry x="845" y="58" width="110" height="50" as="geometry" />
        </mxCell>
        <mxCell id="LfAsfD-tJfEQYERGri0Q-3" value="" style="shape=cylinder3;whiteSpace=wrap;html=1;boundedLbl=1;backgroundOutline=1;size=15;" parent="1" vertex="1">
          <mxGeometry x="1086" y="48" width="60" height="80" as="geometry" />
        </mxCell>
        <mxCell id="LfAsfD-tJfEQYERGri0Q-4" value="" style="endArrow=none;dashed=1;html=1;rounded=0;entryX=0.5;entryY=1;entryDx=0;entryDy=0;" parent="1" source="LfAsfD-tJfEQYERGri0Q-9" target="LfAsfD-tJfEQYERGri0Q-2" edge="1">
          <mxGeometry width="50" height="50" relative="1" as="geometry">
            <mxPoint x="900" y="498" as="sourcePoint" />
            <mxPoint x="925" y="228" as="targetPoint" />
          </mxGeometry>
        </mxCell>
        <mxCell id="LfAsfD-tJfEQYERGri0Q-5" value="" style="endArrow=none;dashed=1;html=1;rounded=0;entryX=0.5;entryY=1;entryDx=0;entryDy=0;entryPerimeter=0;" parent="1" source="RRXcIx0arqrzzIlDEMMo-5" target="LfAsfD-tJfEQYERGri0Q-3" edge="1">
          <mxGeometry width="50" height="50" relative="1" as="geometry">
            <mxPoint x="1116" y="498" as="sourcePoint" />
            <mxPoint x="916" y="228" as="targetPoint" />
          </mxGeometry>
        </mxCell>
        <mxCell id="LfAsfD-tJfEQYERGri0Q-6" value="" style="endArrow=none;dashed=1;html=1;rounded=0;" parent="1" edge="1">
          <mxGeometry width="50" height="50" relative="1" as="geometry">
            <mxPoint x="603" y="428" as="sourcePoint" />
            <mxPoint x="603" y="137" as="targetPoint" />
          </mxGeometry>
        </mxCell>
        <mxCell id="LfAsfD-tJfEQYERGri0Q-7" value="" style="rounded=0;whiteSpace=wrap;html=1;" parent="1" vertex="1">
          <mxGeometry x="598" y="173" width="10" height="215" as="geometry" />
        </mxCell>
        <mxCell id="LfAsfD-tJfEQYERGri0Q-8" value="" style="endArrow=block;html=1;rounded=0;endFill=1;exitX=1.286;exitY=0.06;exitDx=0;exitDy=0;exitPerimeter=0;" parent="1" source="LfAsfD-tJfEQYERGri0Q-7" edge="1">
          <mxGeometry width="50" height="50" relative="1" as="geometry">
            <mxPoint x="664" y="182" as="sourcePoint" />
            <mxPoint x="890" y="184" as="targetPoint" />
          </mxGeometry>
        </mxCell>
        <mxCell id="RRXcIx0arqrzzIlDEMMo-1" value="Selecionar opção &quot;Visualizar Artigos Mais Vendidos&quot;" style="edgeLabel;html=1;align=center;verticalAlign=middle;resizable=0;points=[];" parent="LfAsfD-tJfEQYERGri0Q-8" vertex="1" connectable="0">
          <mxGeometry x="-0.3242" y="1" relative="1" as="geometry">
            <mxPoint x="40" y="-9" as="offset" />
          </mxGeometry>
        </mxCell>
        <mxCell id="LfAsfD-tJfEQYERGri0Q-10" value="" style="endArrow=none;dashed=1;html=1;rounded=0;entryX=0.5;entryY=1;entryDx=0;entryDy=0;" parent="1" target="LfAsfD-tJfEQYERGri0Q-9" edge="1">
          <mxGeometry width="50" height="50" relative="1" as="geometry">
            <mxPoint x="900" y="428" as="sourcePoint" />
            <mxPoint x="900" y="108" as="targetPoint" />
          </mxGeometry>
        </mxCell>
        <mxCell id="LfAsfD-tJfEQYERGri0Q-9" value="" style="rounded=0;whiteSpace=wrap;html=1;" parent="1" vertex="1">
          <mxGeometry x="895" y="173" width="10" height="185" as="geometry" />
        </mxCell>
        <mxCell id="RRXcIx0arqrzzIlDEMMo-2" value="Selecionar período desejado para análise" style="html=1;verticalAlign=bottom;endArrow=open;dashed=1;endSize=8;curved=0;rounded=0;" parent="1" edge="1">
          <mxGeometry relative="1" as="geometry">
            <mxPoint x="895" y="208" as="sourcePoint" />
            <mxPoint x="611" y="210" as="targetPoint" />
          </mxGeometry>
        </mxCell>
        <mxCell id="RRXcIx0arqrzzIlDEMMo-3" value="" style="endArrow=block;html=1;rounded=0;endFill=1;exitX=1.286;exitY=0.06;exitDx=0;exitDy=0;exitPerimeter=0;" parent="1" edge="1">
          <mxGeometry width="50" height="50" relative="1" as="geometry">
            <mxPoint x="610" y="234" as="sourcePoint" />
            <mxPoint x="890" y="234" as="targetPoint" />
          </mxGeometry>
        </mxCell>
        <mxCell id="RRXcIx0arqrzzIlDEMMo-4" value="Seleciona período de análise" style="edgeLabel;html=1;align=center;verticalAlign=middle;resizable=0;points=[];" parent="RRXcIx0arqrzzIlDEMMo-3" vertex="1" connectable="0">
          <mxGeometry x="-0.3242" y="1" relative="1" as="geometry">
            <mxPoint x="40" y="-9" as="offset" />
          </mxGeometry>
        </mxCell>
        <mxCell id="RRXcIx0arqrzzIlDEMMo-6" value="" style="endArrow=none;dashed=1;html=1;rounded=0;entryX=0.5;entryY=1;entryDx=0;entryDy=0;entryPerimeter=0;" parent="1" target="RRXcIx0arqrzzIlDEMMo-5" edge="1">
          <mxGeometry width="50" height="50" relative="1" as="geometry">
            <mxPoint x="1116" y="428" as="sourcePoint" />
            <mxPoint x="1116" y="128" as="targetPoint" />
          </mxGeometry>
        </mxCell>
        <mxCell id="RRXcIx0arqrzzIlDEMMo-5" value="" style="html=1;points=[[0,0,0,0,5],[0,1,0,0,-5],[1,0,0,0,5],[1,1,0,0,-5]];perimeter=orthogonalPerimeter;outlineConnect=0;targetShapes=umlLifeline;portConstraint=eastwest;newEdgeStyle={&quot;curved&quot;:0,&quot;rounded&quot;:0};" parent="1" vertex="1">
          <mxGeometry x="1111" y="279" width="10" height="59" as="geometry" />
        </mxCell>
        <mxCell id="RRXcIx0arqrzzIlDEMMo-7" value="" style="endArrow=block;html=1;rounded=0;endFill=1;exitX=1.286;exitY=0.06;exitDx=0;exitDy=0;exitPerimeter=0;" parent="1" edge="1">
          <mxGeometry width="50" height="50" relative="1" as="geometry">
            <mxPoint x="905" y="285" as="sourcePoint" />
            <mxPoint x="1106" y="285" as="targetPoint" />
          </mxGeometry>
        </mxCell>
        <mxCell id="RRXcIx0arqrzzIlDEMMo-8" value="Enviar query" style="edgeLabel;html=1;align=center;verticalAlign=middle;resizable=0;points=[];" parent="RRXcIx0arqrzzIlDEMMo-7" vertex="1" connectable="0">
          <mxGeometry x="-0.3242" y="1" relative="1" as="geometry">
            <mxPoint x="40" y="-9" as="offset" />
          </mxGeometry>
        </mxCell>
        <mxCell id="RRXcIx0arqrzzIlDEMMo-9" value="" style="html=1;points=[[0,0,0,0,5],[0,1,0,0,-5],[1,0,0,0,5],[1,1,0,0,-5]];perimeter=orthogonalPerimeter;outlineConnect=0;targetShapes=umlLifeline;portConstraint=eastwest;newEdgeStyle={&quot;curved&quot;:0,&quot;rounded&quot;:0};" parent="1" vertex="1">
          <mxGeometry x="902" y="244" width="10" height="30" as="geometry" />
        </mxCell>
        <mxCell id="RRXcIx0arqrzzIlDEMMo-10" style="edgeStyle=orthogonalEdgeStyle;rounded=0;orthogonalLoop=1;jettySize=auto;html=1;curved=0;exitX=1;exitY=0;exitDx=0;exitDy=5;exitPerimeter=0;endArrow=block;endFill=1;" parent="1" source="RRXcIx0arqrzzIlDEMMo-9" target="RRXcIx0arqrzzIlDEMMo-9" edge="1">
          <mxGeometry relative="1" as="geometry">
            <Array as="points">
              <mxPoint x="932" y="249" />
              <mxPoint x="932" y="268" />
            </Array>
          </mxGeometry>
        </mxCell>
        <mxCell id="RRXcIx0arqrzzIlDEMMo-11" value="Criar query" style="edgeLabel;html=1;align=center;verticalAlign=middle;resizable=0;points=[];" parent="RRXcIx0arqrzzIlDEMMo-10" vertex="1" connectable="0">
          <mxGeometry x="-0.0418" relative="1" as="geometry">
            <mxPoint x="28" y="1" as="offset" />
          </mxGeometry>
        </mxCell>
        <mxCell id="RRXcIx0arqrzzIlDEMMo-12" style="edgeStyle=orthogonalEdgeStyle;rounded=0;orthogonalLoop=1;jettySize=auto;html=1;curved=0;exitX=1;exitY=0;exitDx=0;exitDy=5;exitPerimeter=0;" parent="1" source="RRXcIx0arqrzzIlDEMMo-5" target="RRXcIx0arqrzzIlDEMMo-5" edge="1">
          <mxGeometry relative="1" as="geometry">
            <Array as="points">
              <mxPoint x="1121" y="294" />
              <mxPoint x="1141" y="294" />
              <mxPoint x="1141" y="319" />
            </Array>
          </mxGeometry>
        </mxCell>
        <mxCell id="RRXcIx0arqrzzIlDEMMo-13" value="Fazer a pesquisa" style="edgeLabel;html=1;align=center;verticalAlign=middle;resizable=0;points=[];" parent="RRXcIx0arqrzzIlDEMMo-12" vertex="1" connectable="0">
          <mxGeometry x="0.135" relative="1" as="geometry">
            <mxPoint x="45" as="offset" />
          </mxGeometry>
        </mxCell>
        <mxCell id="RRXcIx0arqrzzIlDEMMo-14" value="Enviar os resultados obtidos" style="html=1;verticalAlign=bottom;endArrow=open;dashed=1;endSize=8;curved=0;rounded=0;" parent="1" edge="1">
          <mxGeometry relative="1" as="geometry">
            <mxPoint x="1111" y="328" as="sourcePoint" />
            <mxPoint x="906" y="328" as="targetPoint" />
          </mxGeometry>
        </mxCell>
        <mxCell id="RRXcIx0arqrzzIlDEMMo-15" value="Mostrar os resultados" style="html=1;verticalAlign=bottom;endArrow=open;dashed=1;endSize=8;curved=0;rounded=0;" parent="1" edge="1">
          <mxGeometry relative="1" as="geometry">
            <mxPoint x="895" y="343" as="sourcePoint" />
            <mxPoint x="616" y="343" as="targetPoint" />
          </mxGeometry>
        </mxCell>
        <mxCell id="i38IGlZGF4sqwPRzf7Q0-1" value="Administrador" style="shape=umlActor;verticalLabelPosition=bottom;verticalAlign=top;html=1;" parent="1" vertex="1">
          <mxGeometry x="480" y="490" width="50" height="100" as="geometry" />
        </mxCell>
        <mxCell id="i38IGlZGF4sqwPRzf7Q0-2" value="" style="endArrow=none;dashed=1;html=1;rounded=0;" parent="1" edge="1">
          <mxGeometry width="50" height="50" relative="1" as="geometry">
            <mxPoint x="504.5" y="888" as="sourcePoint" />
            <mxPoint x="504.5" y="597" as="targetPoint" />
          </mxGeometry>
        </mxCell>
        <mxCell id="i38IGlZGF4sqwPRzf7Q0-3" value="Sistema" style="html=1;whiteSpace=wrap;" parent="1" vertex="1">
          <mxGeometry x="726" y="520" width="110" height="50" as="geometry" />
        </mxCell>
        <mxCell id="i38IGlZGF4sqwPRzf7Q0-4" value="" style="endArrow=none;dashed=1;html=1;rounded=0;" parent="1" edge="1">
          <mxGeometry width="50" height="50" relative="1" as="geometry">
            <mxPoint x="786" y="900" as="sourcePoint" />
            <mxPoint x="786" y="570" as="targetPoint" />
          </mxGeometry>
        </mxCell>
        <mxCell id="i38IGlZGF4sqwPRzf7Q0-6" value="" style="endArrow=none;dashed=1;html=1;rounded=0;" parent="1" source="i38IGlZGF4sqwPRzf7Q0-13" edge="1">
          <mxGeometry width="50" height="50" relative="1" as="geometry">
            <mxPoint x="969.5" y="898" as="sourcePoint" />
            <mxPoint x="969.5" y="568" as="targetPoint" />
          </mxGeometry>
        </mxCell>
        <mxCell id="i38IGlZGF4sqwPRzf7Q0-5" value="" style="shape=cylinder3;whiteSpace=wrap;html=1;boundedLbl=1;backgroundOutline=1;size=15;" parent="1" vertex="1">
          <mxGeometry x="940" y="510" width="60" height="80" as="geometry" />
        </mxCell>
        <mxCell id="i38IGlZGF4sqwPRzf7Q0-7" value="" style="rounded=0;whiteSpace=wrap;html=1;" parent="1" vertex="1">
          <mxGeometry x="500" y="625" width="10" height="185" as="geometry" />
        </mxCell>
        <mxCell id="i38IGlZGF4sqwPRzf7Q0-8" value="" style="rounded=0;whiteSpace=wrap;html=1;" parent="1" vertex="1">
          <mxGeometry x="781" y="626" width="10" height="185" as="geometry" />
        </mxCell>
        <mxCell id="i38IGlZGF4sqwPRzf7Q0-9" value="Selecionar Opção &quot;Registar Funcionário&quot;" style="html=1;verticalAlign=bottom;endArrow=block;curved=0;rounded=0;" parent="1" edge="1">
          <mxGeometry width="80" relative="1" as="geometry">
            <mxPoint x="510" y="640" as="sourcePoint" />
            <mxPoint x="780" y="640" as="targetPoint" />
          </mxGeometry>
        </mxCell>
        <mxCell id="i38IGlZGF4sqwPRzf7Q0-10" value="Mostrar formulário para preenchimento" style="html=1;verticalAlign=bottom;endArrow=open;dashed=1;endSize=8;curved=0;rounded=0;" parent="1" edge="1">
          <mxGeometry x="0.0012" relative="1" as="geometry">
            <mxPoint x="781" y="665" as="sourcePoint" />
            <mxPoint x="512" y="665" as="targetPoint" />
            <mxPoint as="offset" />
          </mxGeometry>
        </mxCell>
        <mxCell id="i38IGlZGF4sqwPRzf7Q0-11" value="Inserir dados solicitados" style="html=1;verticalAlign=bottom;endArrow=block;curved=0;rounded=0;" parent="1" edge="1">
          <mxGeometry width="80" relative="1" as="geometry">
            <mxPoint x="510" y="690" as="sourcePoint" />
            <mxPoint x="780" y="690" as="targetPoint" />
          </mxGeometry>
        </mxCell>
        <mxCell id="i38IGlZGF4sqwPRzf7Q0-14" value="" style="endArrow=none;dashed=1;html=1;rounded=0;" parent="1" target="i38IGlZGF4sqwPRzf7Q0-13" edge="1">
          <mxGeometry width="50" height="50" relative="1" as="geometry">
            <mxPoint x="969.5" y="898" as="sourcePoint" />
            <mxPoint x="969.5" y="568" as="targetPoint" />
          </mxGeometry>
        </mxCell>
        <mxCell id="i38IGlZGF4sqwPRzf7Q0-21" style="edgeStyle=orthogonalEdgeStyle;rounded=0;orthogonalLoop=1;jettySize=auto;html=1;exitX=1;exitY=0.25;exitDx=0;exitDy=0;" parent="1" source="i38IGlZGF4sqwPRzf7Q0-13" edge="1">
          <mxGeometry relative="1" as="geometry">
            <mxPoint x="980" y="735" as="targetPoint" />
            <Array as="points">
              <mxPoint x="1010" y="718" />
              <mxPoint x="1010" y="735" />
            </Array>
          </mxGeometry>
        </mxCell>
        <mxCell id="i38IGlZGF4sqwPRzf7Q0-22" value="Gerar ID único" style="edgeLabel;html=1;align=center;verticalAlign=middle;resizable=0;points=[];" parent="i38IGlZGF4sqwPRzf7Q0-21" vertex="1" connectable="0">
          <mxGeometry x="0.015" relative="1" as="geometry">
            <mxPoint x="37" y="2" as="offset" />
          </mxGeometry>
        </mxCell>
        <mxCell id="i38IGlZGF4sqwPRzf7Q0-13" value="" style="rounded=0;whiteSpace=wrap;html=1;" parent="1" vertex="1">
          <mxGeometry x="965" y="700" width="10" height="70" as="geometry" />
        </mxCell>
        <mxCell id="i38IGlZGF4sqwPRzf7Q0-15" value="Guardar dados" style="html=1;verticalAlign=bottom;endArrow=block;curved=0;rounded=0;" parent="1" edge="1">
          <mxGeometry width="80" relative="1" as="geometry">
            <mxPoint x="791" y="710" as="sourcePoint" />
            <mxPoint x="963" y="710" as="targetPoint" />
          </mxGeometry>
        </mxCell>
        <mxCell id="i38IGlZGF4sqwPRzf7Q0-16" value="Dados salvos com sucesso" style="html=1;verticalAlign=bottom;endArrow=open;dashed=1;endSize=8;curved=0;rounded=0;" parent="1" edge="1">
          <mxGeometry x="0.0002" relative="1" as="geometry">
            <mxPoint x="965" y="749.16" as="sourcePoint" />
            <mxPoint x="794" y="750" as="targetPoint" />
            <mxPoint as="offset" />
          </mxGeometry>
        </mxCell>
        <mxCell id="i38IGlZGF4sqwPRzf7Q0-17" value="" style="rounded=0;whiteSpace=wrap;html=1;" parent="1" vertex="1">
          <mxGeometry x="968" y="714.5" width="10" height="29.5" as="geometry" />
        </mxCell>
        <mxCell id="i38IGlZGF4sqwPRzf7Q0-20" value="Funcionário registrado com sucesso" style="html=1;verticalAlign=bottom;endArrow=open;dashed=1;endSize=8;curved=0;rounded=0;" parent="1" edge="1">
          <mxGeometry x="0.0007" relative="1" as="geometry">
            <mxPoint x="781" y="765" as="sourcePoint" />
            <mxPoint x="510" y="765" as="targetPoint" />
            <mxPoint as="offset" />
          </mxGeometry>
        </mxCell>
        <mxCell id="i38IGlZGF4sqwPRzf7Q0-23" value="Devolver ID para o administrador" style="html=1;verticalAlign=bottom;endArrow=open;dashed=1;endSize=8;curved=0;rounded=0;" parent="1" edge="1">
          <mxGeometry x="0.0007" relative="1" as="geometry">
            <mxPoint x="781" y="790" as="sourcePoint" />
            <mxPoint x="510" y="790" as="targetPoint" />
            <mxPoint as="offset" />
          </mxGeometry>
        </mxCell>
      </root>
    </mxGraphModel>
  </diagram>
</mxfile>
